{
    "asset" : {
        "copyright" : "TheFamousRat",
        "generator" : "Khronos glTF Blender I/O v1.1.46",
        "version" : "2.0"
    },
    "scene" : 0,
    "scenes" : [
        {
            "name" : "Scene",
            "nodes" : [
                7
            ]
        }
    ],
    "nodes" : [
        {
            "mesh" : 0,
            "name" : "Button",
            "translation" : [
                0,
                0,
                2.351397597522009e-06
            ]
        },
        {
            "name" : "Door_L",
            "rotation" : [
                -2.6692543286799264e-08,
                -2.6692543286799264e-08,
                -0.7071068286895752,
                0.7071068286895752
            ],
            "translation" : [
                0.006649613380432129,
                1.2999999523162842,
                0
            ]
        },
        {
            "name" : "Door_R",
            "rotation" : [
                -2.6692543286799264e-08,
                2.6692543286799264e-08,
                0.7071068286895752,
                0.7071068286895752
            ],
            "translation" : [
                -0.006649613380432129,
                1.2999999523162842,
                0
            ]
        },
        {
            "children" : [
                1,
                2
            ],
            "name" : "Bone",
            "translation" : [
                0,
                -1.399999976158142,
                0
            ]
        },
        {
            "mesh" : 1,
            "name" : "Doors.001",
            "skin" : 0
        },
        {
            "mesh" : 2,
            "name" : "Doors.002",
            "translation" : [
                0,
                0,
                2.351397597522009e-06
            ]
        },
        {
            "children" : [
                0,
                4,
                5
            ],
            "mesh" : 3,
            "name" : "Doors",
            "rotation" : [
                0,
                0,
                -1,
                -4.371138828673793e-08
            ],
            "scale" : [
                -1,
                -1,
                -0.0506972074508667
            ],
            "translation" : [
                0,
                0,
                -1.6552499532699585
            ]
        },
        {
            "children" : [
                6,
                3
            ],
            "name" : "DoorArm",
            "translation" : [
                0,
                0,
                1.6552499532699585
            ]
        }
    ],
    "animations" : [
        {
            "channels" : [
                {
                    "sampler" : 0,
                    "target" : {
                        "node" : 3,
                        "path" : "translation"
                    }
                },
                {
                    "sampler" : 1,
                    "target" : {
                        "node" : 3,
                        "path" : "rotation"
                    }
                },
                {
                    "sampler" : 2,
                    "target" : {
                        "node" : 3,
                        "path" : "scale"
                    }
                },
                {
                    "sampler" : 3,
                    "target" : {
                        "node" : 1,
                        "path" : "translation"
                    }
                },
                {
                    "sampler" : 4,
                    "target" : {
                        "node" : 1,
                        "path" : "rotation"
                    }
                },
                {
                    "sampler" : 5,
                    "target" : {
                        "node" : 1,
                        "path" : "scale"
                    }
                },
                {
                    "sampler" : 6,
                    "target" : {
                        "node" : 2,
                        "path" : "translation"
                    }
                },
                {
                    "sampler" : 7,
                    "target" : {
                        "node" : 2,
                        "path" : "rotation"
                    }
                },
                {
                    "sampler" : 8,
                    "target" : {
                        "node" : 2,
                        "path" : "scale"
                    }
                }
            ],
            "name" : "DoorOpen",
            "samplers" : [
                {
                    "input" : 23,
                    "interpolation" : "LINEAR",
                    "output" : 24
                },
                {
                    "input" : 23,
                    "interpolation" : "LINEAR",
                    "output" : 25
                },
                {
                    "input" : 23,
                    "interpolation" : "LINEAR",
                    "output" : 26
                },
                {
                    "input" : 23,
                    "interpolation" : "LINEAR",
                    "output" : 27
                },
                {
                    "input" : 23,
                    "interpolation" : "LINEAR",
                    "output" : 28
                },
                {
                    "input" : 23,
                    "interpolation" : "LINEAR",
                    "output" : 29
                },
                {
                    "input" : 23,
                    "interpolation" : "LINEAR",
                    "output" : 30
                },
                {
                    "input" : 23,
                    "interpolation" : "LINEAR",
                    "output" : 31
                },
                {
                    "input" : 23,
                    "interpolation" : "LINEAR",
                    "output" : 32
                }
            ]
        }
    ],
    "materials" : [
        {
            "doubleSided" : true,
            "emissiveFactor" : [
                0,
                0,
                0
            ],
            "name" : "DoorsMetal",
            "pbrMetallicRoughness" : {
                "baseColorFactor" : [
                    0.6038150191307068,
                    0.6038150191307068,
                    0.6038150191307068,
                    1
                ],
                "metallicFactor" : 1,
                "roughnessFactor" : 0.2199999988079071
            }
        },
        {
            "doubleSided" : true,
            "emissiveFactor" : [
                0,
                0,
                0
            ],
            "name" : "Cadran",
            "pbrMetallicRoughness" : {
                "baseColorFactor" : [
                    0,
                    0,
                    0,
                    1
                ],
                "metallicFactor" : 0,
                "roughnessFactor" : 0.30000001192092896
            }
        }
    ],
    "meshes" : [
        {
            "name" : "Cube.014",
            "primitives" : [
                {
                    "attributes" : {
                        "POSITION" : 0,
                        "NORMAL" : 1,
                        "TEXCOORD_0" : 2
                    },
                    "indices" : 3,
                    "material" : 0
                }
            ]
        },
        {
            "name" : "Cube.009",
            "primitives" : [
                {
                    "attributes" : {
                        "POSITION" : 4,
                        "NORMAL" : 5,
                        "TEXCOORD_0" : 6,
                        "JOINTS_0" : 7,
                        "WEIGHTS_0" : 8
                    },
                    "indices" : 9,
                    "material" : 0
                }
            ]
        },
        {
            "name" : "Cube.007",
            "primitives" : [
                {
                    "attributes" : {
                        "POSITION" : 11,
                        "NORMAL" : 12,
                        "TEXCOORD_0" : 13
                    },
                    "indices" : 14,
                    "material" : 0
                }
            ]
        },
        {
            "name" : "ElevatorDoors",
            "primitives" : [
                {
                    "attributes" : {
                        "POSITION" : 15,
                        "NORMAL" : 16,
                        "TEXCOORD_0" : 17
                    },
                    "indices" : 18,
                    "material" : 0
                },
                {
                    "attributes" : {
                        "POSITION" : 19,
                        "NORMAL" : 20,
                        "TEXCOORD_0" : 21
                    },
                    "indices" : 22,
                    "material" : 1
                }
            ]
        }
    ],
    "skins" : [
        {
            "inverseBindMatrices" : 10,
            "joints" : [
                3,
                1,
                2
            ],
            "name" : "DoorArm"
        }
    ],
    "accessors" : [
        {
            "bufferView" : 0,
            "componentType" : 5126,
            "count" : 48,
            "max" : [
                0.9946309328079224,
                -0.038330115377902985,
                -3.5912649631500244
            ],
            "min" : [
                0.9028297662734985,
                -0.130131334066391,
                -4.913461208343506
            ],
            "type" : "VEC3"
        },
        {
            "bufferView" : 1,
            "componentType" : 5126,
            "count" : 48,
            "type" : "VEC3"
        },
        {
            "bufferView" : 2,
            "componentType" : 5126,
            "count" : 48,
            "type" : "VEC2"
        },
        {
            "bufferView" : 3,
            "componentType" : 5123,
            "count" : 72,
            "type" : "SCALAR"
        },
        {
            "bufferView" : 4,
            "componentType" : 5126,
            "count" : 128,
            "max" : [
                2.135458469390869,
                1.095249056816101,
                0.058266520500183105
            ],
            "min" : [
                -2.1354587078094482,
                -1.4007372856140137,
                -0.04630911350250244
            ],
            "type" : "VEC3"
        },
        {
            "bufferView" : 5,
            "componentType" : 5126,
            "count" : 128,
            "type" : "VEC3"
        },
        {
            "bufferView" : 6,
            "componentType" : 5126,
            "count" : 128,
            "type" : "VEC2"
        },
        {
            "bufferView" : 7,
            "componentType" : 5123,
            "count" : 128,
            "type" : "VEC4"
        },
        {
            "bufferView" : 8,
            "componentType" : 5126,
            "count" : 128,
            "type" : "VEC4"
        },
        {
            "bufferView" : 9,
            "componentType" : 5123,
            "count" : 180,
            "type" : "SCALAR"
        },
        {
            "bufferView" : 10,
            "componentType" : 5126,
            "count" : 3,
            "type" : "MAT4"
        },
        {
            "bufferView" : 11,
            "componentType" : 5126,
            "count" : 206,
            "max" : [
                1.0662810802459717,
                0.1557139903306961,
                -2.907526731491089
            ],
            "min" : [
                0.8311796188354492,
                -0.3241754174232483,
                -4.51790714263916
            ],
            "type" : "VEC3"
        },
        {
            "bufferView" : 12,
            "componentType" : 5126,
            "count" : 206,
            "type" : "VEC3"
        },
        {
            "bufferView" : 13,
            "componentType" : 5126,
            "count" : 206,
            "type" : "VEC2"
        },
        {
            "bufferView" : 14,
            "componentType" : 5123,
            "count" : 360,
            "type" : "SCALAR"
        },
        {
            "bufferView" : 15,
            "componentType" : 5126,
            "count" : 203,
            "max" : [
                1.1798175573349,
                1.3900460004806519,
                0.1928059309720993
            ],
            "min" : [
                -1.204671025276184,
                -1.4100850820541382,
                -0.07774841785430908
            ],
            "type" : "VEC3"
        },
        {
            "bufferView" : 16,
            "componentType" : 5126,
            "count" : 203,
            "type" : "VEC3"
        },
        {
            "bufferView" : 17,
            "componentType" : 5126,
            "count" : 203,
            "type" : "VEC2"
        },
        {
            "bufferView" : 18,
            "componentType" : 5123,
            "count" : 384,
            "type" : "SCALAR"
        },
        {
            "bufferView" : 19,
            "componentType" : 5126,
            "count" : 4,
            "max" : [
                0.21140839159488678,
                1.2895245552062988,
                0.16362757980823517
            ],
            "min" : [
                -0.2362617552280426,
                1.1937224864959717,
                0.16362757980823517
            ],
            "type" : "VEC3"
        },
        {
            "bufferView" : 20,
            "componentType" : 5126,
            "count" : 4,
            "type" : "VEC3"
        },
        {
            "bufferView" : 21,
            "componentType" : 5126,
            "count" : 4,
            "type" : "VEC2"
        },
        {
            "bufferView" : 22,
            "componentType" : 5123,
            "count" : 6,
            "type" : "SCALAR"
        },
        {
            "bufferView" : 23,
            "componentType" : 5126,
            "count" : 21,
            "max" : [
                0.8333333333333334
            ],
            "min" : [
                0
            ],
            "type" : "SCALAR"
        },
        {
            "bufferView" : 24,
            "componentType" : 5126,
            "count" : 21,
            "type" : "VEC3"
        },
        {
            "bufferView" : 25,
            "componentType" : 5126,
            "count" : 21,
            "type" : "VEC4"
        },
        {
            "bufferView" : 26,
            "componentType" : 5126,
            "count" : 21,
            "type" : "VEC3"
        },
        {
            "bufferView" : 27,
            "componentType" : 5126,
            "count" : 21,
            "type" : "VEC3"
        },
        {
            "bufferView" : 28,
            "componentType" : 5126,
            "count" : 21,
            "type" : "VEC4"
        },
        {
            "bufferView" : 29,
            "componentType" : 5126,
            "count" : 21,
            "type" : "VEC3"
        },
        {
            "bufferView" : 30,
            "componentType" : 5126,
            "count" : 21,
            "type" : "VEC3"
        },
        {
            "bufferView" : 31,
            "componentType" : 5126,
            "count" : 21,
            "type" : "VEC4"
        },
        {
            "bufferView" : 32,
            "componentType" : 5126,
            "count" : 21,
            "type" : "VEC3"
        }
    ],
    "bufferViews" : [
        {
            "buffer" : 0,
            "byteLength" : 576,
            "byteOffset" : 0
        },
        {
            "buffer" : 0,
            "byteLength" : 576,
            "byteOffset" : 576
        },
        {
            "buffer" : 0,
            "byteLength" : 384,
            "byteOffset" : 1152
        },
        {
            "buffer" : 0,
            "byteLength" : 144,
            "byteOffset" : 1536
        },
        {
            "buffer" : 0,
            "byteLength" : 1536,
            "byteOffset" : 1680
        },
        {
            "buffer" : 0,
            "byteLength" : 1536,
            "byteOffset" : 3216
        },
        {
            "buffer" : 0,
            "byteLength" : 1024,
            "byteOffset" : 4752
        },
        {
            "buffer" : 0,
            "byteLength" : 1024,
            "byteOffset" : 5776
        },
        {
            "buffer" : 0,
            "byteLength" : 2048,
            "byteOffset" : 6800
        },
        {
            "buffer" : 0,
            "byteLength" : 360,
            "byteOffset" : 8848
        },
        {
            "buffer" : 0,
            "byteLength" : 192,
            "byteOffset" : 9208
        },
        {
            "buffer" : 0,
            "byteLength" : 2472,
            "byteOffset" : 9400
        },
        {
            "buffer" : 0,
            "byteLength" : 2472,
            "byteOffset" : 11872
        },
        {
            "buffer" : 0,
            "byteLength" : 1648,
            "byteOffset" : 14344
        },
        {
            "buffer" : 0,
            "byteLength" : 720,
            "byteOffset" : 15992
        },
        {
            "buffer" : 0,
            "byteLength" : 2436,
            "byteOffset" : 16712
        },
        {
            "buffer" : 0,
            "byteLength" : 2436,
            "byteOffset" : 19148
        },
        {
            "buffer" : 0,
            "byteLength" : 1624,
            "byteOffset" : 21584
        },
        {
            "buffer" : 0,
            "byteLength" : 768,
            "byteOffset" : 23208
        },
        {
            "buffer" : 0,
            "byteLength" : 48,
            "byteOffset" : 23976
        },
        {
            "buffer" : 0,
            "byteLength" : 48,
            "byteOffset" : 24024
        },
        {
            "buffer" : 0,
            "byteLength" : 32,
            "byteOffset" : 24072
        },
        {
            "buffer" : 0,
            "byteLength" : 12,
            "byteOffset" : 24104
        },
        {
            "buffer" : 0,
            "byteLength" : 84,
            "byteOffset" : 24116
        },
        {
            "buffer" : 0,
            "byteLength" : 252,
            "byteOffset" : 24200
        },
        {
            "buffer" : 0,
            "byteLength" : 336,
            "byteOffset" : 24452
        },
        {
            "buffer" : 0,
            "byteLength" : 252,
            "byteOffset" : 24788
        },
        {
            "buffer" : 0,
            "byteLength" : 252,
            "byteOffset" : 25040
        },
        {
            "buffer" : 0,
            "byteLength" : 336,
            "byteOffset" : 25292
        },
        {
            "buffer" : 0,
            "byteLength" : 252,
            "byteOffset" : 25628
        },
        {
            "buffer" : 0,
            "byteLength" : 252,
            "byteOffset" : 25880
        },
        {
            "buffer" : 0,
            "byteLength" : 336,
            "byteOffset" : 26132
        },
        {
            "buffer" : 0,
            "byteLength" : 252,
            "byteOffset" : 26468
        }
    ],
    "buffers" : [
        {
            "byteLength" : 26720,
            "uri" : "data:application/octet-stream;base64,"
        }
    ]
}
